<svg xmlns="http://www.w3.org/2000/svg" width="32" height="32" viewBox="0 0 32 32" fill="none">
  <!-- 背景 -->
  <rect width="32" height="32" rx="4" fill="#FFFFFF"/>
  
  <!-- 简化后的ArUco风格标记图案 (4x4) -->
  <g>
    <!-- 第一行 -->
    <rect x="4" y="4" width="6" height="6" fill="#000000"/>
    <rect x="10" y="4" width="6" height="6" fill="#000000"/>
    <rect x="16" y="4" width="6" height="6" fill="#FFFFFF"/>
    <rect x="22" y="4" width="6" height="6" fill="#000000"/>
    
    <!-- 第二行 -->
    <rect x="4" y="10" width="6" height="6" fill="#FFFFFF"/>
    <rect x="10" y="10" width="6" height="6" fill="#000000"/>
    <rect x="16" y="10" width="6" height="6" fill="#FFFFFF"/>
    <rect x="22" y="10" width="6" height="6" fill="#000000"/>
    
    <!-- 第三行 -->
    <rect x="4" y="16" width="6" height="6" fill="#000000"/>
    <rect x="10" y="16" width="6" height="6" fill="#FFFFFF"/>
    <rect x="16" y="16" width="6" height="6" fill="#000000"/>
    <rect x="22" y="16" width="6" height="6" fill="#FFFFFF"/>
    
    <!-- 第四行 -->
    <rect x="4" y="22" width="6" height="6" fill="#FFFFFF"/>
    <rect x="10" y="22" width="6" height="6" fill="#000000"/>
    <rect x="16" y="22" width="6" height="6" fill="#FFFFFF"/>
    <rect x="22" y="22" width="6" height="6" fill="#000000"/>
  </g>
  
  <!-- 边框 -->
  <rect x="2" y="2" width="28" height="28" rx="3" stroke="#000000" stroke-width="1" fill="none"/>
</svg>