<svg xmlns="http://www.w3.org/2000/svg" width="32" height="32" viewBox="0 0 32 32" fill="none">
  <!-- 背景 -->
  <rect width="32" height="32" rx="4" fill="#FFFFFF"/>
  
  <!-- ArUco风格的标记图案 -->
  <g>
    <!-- 第一行 -->
    <rect x="4" y="4" width="4" height="4" fill="#000000"/>
    <rect x="8" y="4" width="4" height="4" fill="#000000"/>
    <rect x="12" y="4" width="4" height="4" fill="#FFFFFF"/>
    <rect x="16" y="4" width="4" height="4" fill="#000000"/>
    <rect x="20" y="4" width="4" height="4" fill="#FFFFFF"/>
    <rect x="24" y="4" width="4" height="4" fill="#000000"/>
    
    <!-- 第二行 -->
    <rect x="4" y="8" width="4" height="4" fill="#FFFFFF"/>
    <rect x="8" y="8" width="4" height="4" fill="#000000"/>
    <rect x="12" y="8" width="4" height="4" fill="#FFFFFF"/>
    <rect x="16" y="8" width="4" height="4" fill="#000000"/>
    <rect x="20" y="8" width="4" height="4" fill="#FFFFFF"/>
    <rect x="24" y="8" width="4" height="4" fill="#000000"/>
    
    <!-- 第三行 -->
    <rect x="4" y="12" width="4" height="4" fill="#000000"/>
    <rect x="8" y="12" width="4" height="4" fill="#FFFFFF"/>
    <rect x="12" y="12" width="4" height="4" fill="#000000"/>
    <rect x="16" y="12" width="4" height="4" fill="#FFFFFF"/>
    <rect x="20" y="12" width="4" height="4" fill="#000000"/>
    <rect x="24" y="12" width="4" height="4" fill="#FFFFFF"/>
    
    <!-- 第四行 -->
    <rect x="4" y="16" width="4" height="4" fill="#FFFFFF"/>
    <rect x="8" y="16" width="4" height="4" fill="#000000"/>
    <rect x="12" y="16" width="4" height="4" fill="#FFFFFF"/>
    <rect x="16" y="16" width="4" height="4" fill="#000000"/>
    <rect x="20" y="16" width="4" height="4" fill="#FFFFFF"/>
    <rect x="24" y="16" width="4" height="4" fill="#000000"/>
    
    <!-- 第五行 -->
    <rect x="4" y="20" width="4" height="4" fill="#000000"/>
    <rect x="8" y="20" width="4" height="4" fill="#FFFFFF"/>
    <rect x="12" y="20" width="4" height="4" fill="#000000"/>
    <rect x="16" y="20" width="4" height="4" fill="#FFFFFF"/>
    <rect x="20" y="20" width="4" height="4" fill="#000000"/>
    <rect x="24" y="20" width="4" height="4" fill="#FFFFFF"/>
    
    <!-- 第六行 -->
    <rect x="4" y="24" width="4" height="4" fill="#FFFFFF"/>
    <rect x="8" y="24" width="4" height="4" fill="#000000"/>
    <rect x="12" y="24" width="4" height="4" fill="#FFFFFF"/>
    <rect x="16" y="24" width="4" height="4" fill="#000000"/>
    <rect x="20" y="24" width="4" height="4" fill="#FFFFFF"/>
    <rect x="24" y="24" width="4" height="4" fill="#000000"/>
  </g>
  
  <!-- 边框 -->
  <rect x="2" y="2" width="28" height="28" rx="3" stroke="#000000" stroke-width="1" fill="none"/>
</svg>